<svg width="110" height="74" viewBox="0 0 110 74" fill="none" xmlns="http://www.w3.org/2000/svg">
<path d="M28.322 30.9412L55.1921 4.07108C59.0973 0.165835 65.429 0.165827 69.3343 4.07107L96.2044 30.9412L97.2165 31.9533C100.004 34.7405 100.004 39.2595 97.2165 42.0467V42.0467L69.3342 69.9289C65.429 73.8342 59.0974 73.8342 55.1921 69.9289L28.322 43.0588" stroke="black" stroke-width="2"/>
<path d="M79.9412 30.9412L53.0711 4.07108C49.1658 0.165835 42.8342 0.165827 38.9289 4.07107L12.0588 30.9412L11.0467 31.9533C8.25948 34.7405 8.25948 39.2595 11.0467 42.0467V42.0467L38.9289 69.9289C42.8342 73.8342 49.1658 73.8342 53.0711 69.9289L79.9412 43.0588" stroke="black" stroke-width="2"/>
<path d="M24.7749 39.4L24.064 37.5836H21.7749L21.0718 39.4H20.3999L22.6577 33.6656H23.2163L25.4624 39.4H24.7749ZM23.8569 36.986L23.1929 35.2164C23.1069 34.9925 23.0184 34.7177 22.9272 34.3922C22.87 34.6422 22.7879 34.917 22.6812 35.2164L22.0093 36.986H23.8569Z" fill="black"/>
<path d="M28.7593 36.4078H30.7007V39.1852C30.3986 39.2815 30.0913 39.3545 29.7788 39.4039C29.4663 39.4534 29.1043 39.4781 28.6929 39.4781C27.8283 39.4781 27.1551 39.2216 26.6733 38.7086C26.1916 38.193 25.9507 37.4716 25.9507 36.5446C25.9507 35.9508 26.0692 35.4313 26.3062 34.986C26.5457 34.538 26.8895 34.1969 27.3374 33.9625C27.7853 33.7255 28.3101 33.6071 28.9116 33.6071C29.521 33.6071 30.0887 33.719 30.6147 33.943L30.3569 34.5289C29.8413 34.3102 29.3452 34.2008 28.8687 34.2008C28.1733 34.2008 27.6304 34.4078 27.2397 34.8219C26.8491 35.236 26.6538 35.8102 26.6538 36.5446C26.6538 37.3154 26.8413 37.9 27.2163 38.2985C27.5939 38.6969 28.1473 38.8961 28.8765 38.8961C29.2723 38.8961 29.659 38.8505 30.0366 38.7594V37.0016H28.7593V36.4078Z" fill="black"/>
<path d="M35.2593 39.4H32.0757V33.6891H35.2593V34.2789H32.7397V36.1188H35.1069V36.7047H32.7397V38.8063H35.2593V39.4Z" fill="black"/>
<path d="M40.9897 39.4H40.2319L37.1108 34.6071H37.0796C37.1213 35.1696 37.1421 35.6852 37.1421 36.1539V39.4H36.5288V33.6891H37.2788L40.3921 38.4625H40.4233C40.4181 38.3922 40.4064 38.167 40.3882 37.7867C40.37 37.4039 40.3634 37.1305 40.3687 36.9664V33.6891H40.9897V39.4Z" fill="black"/>
<path d="M45.0054 34.2008C44.3778 34.2008 43.8817 34.4104 43.5171 34.8297C43.1551 35.2464 42.9741 35.818 42.9741 36.5446C42.9741 37.292 43.1486 37.8701 43.4976 38.2789C43.8491 38.6852 44.3491 38.8883 44.9976 38.8883C45.396 38.8883 45.8504 38.8167 46.3608 38.6735V39.2555C45.965 39.4039 45.4767 39.4781 44.896 39.4781C44.0549 39.4781 43.4051 39.2229 42.9468 38.7125C42.491 38.2021 42.2632 37.4768 42.2632 36.5367C42.2632 35.9482 42.3726 35.4326 42.5913 34.9899C42.8127 34.5472 43.1304 34.206 43.5444 33.9664C43.9611 33.7268 44.4507 33.6071 45.0132 33.6071C45.6121 33.6071 46.1356 33.7164 46.5835 33.9352L46.3022 34.5055C45.87 34.3024 45.4377 34.2008 45.0054 34.2008Z" fill="black"/>
<path d="M49.0601 36.5446L50.5835 33.6891H51.3022L49.396 37.1852V39.4H48.7241V37.2164L46.8218 33.6891H47.5483L49.0601 36.5446Z" fill="black"/>
<path d="M57.3921 37.8805C57.3921 38.3831 57.2098 38.775 56.8452 39.0563C56.4806 39.3375 55.9858 39.4781 55.3608 39.4781C54.6838 39.4781 54.1629 39.3909 53.7983 39.2164V38.5758C54.0327 38.6748 54.2879 38.7529 54.564 38.8102C54.84 38.8675 55.1134 38.8961 55.3843 38.8961C55.827 38.8961 56.1603 38.8128 56.3843 38.6461C56.6082 38.4768 56.7202 38.2425 56.7202 37.943C56.7202 37.7451 56.6799 37.5836 56.5991 37.4586C56.521 37.331 56.3882 37.2138 56.2007 37.1071C56.0158 37.0003 55.7332 36.8792 55.353 36.7438C54.8218 36.5537 54.4416 36.3284 54.2124 36.068C53.9858 35.8076 53.8726 35.4677 53.8726 35.0485C53.8726 34.6084 54.0379 34.2581 54.3687 33.9977C54.6994 33.7373 55.1369 33.6071 55.6812 33.6071C56.2489 33.6071 56.771 33.7112 57.2476 33.9196L57.0405 34.4977C56.5692 34.2998 56.1108 34.2008 55.6655 34.2008C55.314 34.2008 55.0392 34.2763 54.8413 34.4274C54.6434 34.5784 54.5444 34.788 54.5444 35.0563C54.5444 35.2542 54.5809 35.417 54.6538 35.5446C54.7267 35.6696 54.8491 35.7854 55.021 35.8922C55.1955 35.9964 55.4611 36.1123 55.8179 36.2399C56.4168 36.4534 56.8283 36.6826 57.0522 36.9274C57.2788 37.1722 57.3921 37.4899 57.3921 37.8805Z" fill="black"/>
<path d="M61.7437 39.4H58.5601V33.6891H61.7437V34.2789H59.2241V36.1188H61.5913V36.7047H59.2241V38.8063H61.7437V39.4Z" fill="black"/>
<path d="M63.6772 37.025V39.4H63.0132V33.6891H64.5796C65.2801 33.6891 65.797 33.8232 66.1304 34.0914C66.4663 34.3597 66.6343 34.7633 66.6343 35.3024C66.6343 36.0576 66.2515 36.568 65.4858 36.8336L67.0366 39.4H66.2515L64.8687 37.025H63.6772ZM63.6772 36.4547H64.5874C65.0562 36.4547 65.3999 36.3623 65.6187 36.1774C65.8374 35.9899 65.9468 35.7099 65.9468 35.3375C65.9468 34.9599 65.8348 34.6878 65.6108 34.5211C65.3895 34.3545 65.0327 34.2711 64.5405 34.2711H63.6772V36.4547Z" fill="black"/>
<path d="M71.2202 33.6891H71.9351L69.8765 39.4H69.2202L67.1733 33.6891H67.8765L69.189 37.3844C69.34 37.8089 69.4598 38.2216 69.5483 38.6227C69.6421 38.2008 69.7645 37.7802 69.9155 37.361L71.2202 33.6891Z" fill="black"/>
<path d="M72.7241 39.4V33.6891H73.3882V39.4H72.7241Z" fill="black"/>
<path d="M77.4038 34.2008C76.7762 34.2008 76.2801 34.4104 75.9155 34.8297C75.5536 35.2464 75.3726 35.818 75.3726 36.5446C75.3726 37.292 75.547 37.8701 75.896 38.2789C76.2476 38.6852 76.7476 38.8883 77.396 38.8883C77.7944 38.8883 78.2489 38.8167 78.7593 38.6735V39.2555C78.3634 39.4039 77.8752 39.4781 77.2944 39.4781C76.4533 39.4781 75.8036 39.2229 75.3452 38.7125C74.8895 38.2021 74.6616 37.4768 74.6616 36.5367C74.6616 35.9482 74.771 35.4326 74.9897 34.9899C75.2111 34.5472 75.5288 34.206 75.9429 33.9664C76.3595 33.7268 76.8491 33.6071 77.4116 33.6071C78.0106 33.6071 78.534 33.7164 78.9819 33.9352L78.7007 34.5055C78.2684 34.3024 77.8361 34.2008 77.4038 34.2008Z" fill="black"/>
<path d="M83.189 39.4H80.0054V33.6891H83.189V34.2789H80.6694V36.1188H83.0366V36.7047H80.6694V38.8063H83.189V39.4Z" fill="black"/>
<path d="M87.6812 37.8805C87.6812 38.3831 87.4989 38.775 87.1343 39.0563C86.7697 39.3375 86.2749 39.4781 85.6499 39.4781C84.9728 39.4781 84.452 39.3909 84.0874 39.2164V38.5758C84.3218 38.6748 84.577 38.7529 84.853 38.8102C85.1291 38.8675 85.4025 38.8961 85.6733 38.8961C86.1161 38.8961 86.4494 38.8128 86.6733 38.6461C86.8973 38.4768 87.0093 38.2425 87.0093 37.943C87.0093 37.7451 86.9689 37.5836 86.8882 37.4586C86.8101 37.331 86.6772 37.2138 86.4897 37.1071C86.3048 37.0003 86.0223 36.8792 85.6421 36.7438C85.1108 36.5537 84.7306 36.3284 84.5015 36.068C84.2749 35.8076 84.1616 35.4677 84.1616 35.0485C84.1616 34.6084 84.327 34.2581 84.6577 33.9977C84.9884 33.7373 85.4259 33.6071 85.9702 33.6071C86.5379 33.6071 87.0601 33.7112 87.5366 33.9196L87.3296 34.4977C86.8582 34.2998 86.3999 34.2008 85.9546 34.2008C85.603 34.2008 85.3283 34.2763 85.1304 34.4274C84.9325 34.5784 84.8335 34.788 84.8335 35.0563C84.8335 35.2542 84.87 35.417 84.9429 35.5446C85.0158 35.6696 85.1382 35.7854 85.3101 35.8922C85.4845 35.9964 85.7502 36.1123 86.1069 36.2399C86.7059 36.4534 87.1173 36.6826 87.3413 36.9274C87.5679 37.1722 87.6812 37.4899 87.6812 37.8805Z" fill="black"/>
<path d="M48.3705 21.9203H50.0832L47.3637 29.9203H45.5141L42.8 21.9203H44.5128L46.0176 26.6809C46.1015 26.9618 46.1872 27.2901 46.2747 27.6658C46.3659 28.0379 46.4225 28.2969 46.4444 28.4429C46.4845 28.1072 46.6213 27.5199 46.8548 26.6809L48.3705 21.9203Z" fill="black"/>
<path d="M57.5306 29.9203H55.6044L53.5087 26.5496L52.7918 27.0639V29.9203H51.0955V21.9203H52.7918V25.581L53.4594 24.6399L55.6263 21.9203H57.5087L54.718 25.4606L57.5306 29.9203Z" fill="black"/>
<path d="M63.101 21.9203H64.8137L62.0942 29.9203H60.2446L57.5306 21.9203H59.2433L60.7481 26.6809C60.832 26.9618 60.9177 27.2901 61.0052 27.6658C61.0964 28.0379 61.153 28.2969 61.1749 28.4429C61.215 28.1072 61.3518 27.5199 61.5853 26.6809L63.101 21.9203Z" fill="black"/>
</svg>
